<mxfile host="app.diagrams.net" modified="2021-03-01T12:50:22.155Z" agent="5.0 (Windows NT 10.0; Win64; x64) AppleWebKit/537.36 (KHTML, like Gecko) Chrome/88.0.4324.190 Safari/537.36" etag="WYaC3EXBu4hK6Ehh2gzq" version="14.4.2" type="github">
  <diagram id="XBOGNHizAK6JIeIxBVBZ" name="Page-1">
    <mxGraphModel dx="1422" dy="762" grid="1" gridSize="10" guides="1" tooltips="1" connect="1" arrows="1" fold="1" page="1" pageScale="1" pageWidth="827" pageHeight="1169" math="0" shadow="0">
      <root>
        <mxCell id="0" />
        <mxCell id="1" parent="0" />
        <mxCell id="E3F-e6bLjiYr8utAB-yd-9" value="" style="shape=dataStorage;whiteSpace=wrap;html=1;fixedSize=1;" vertex="1" parent="1">
          <mxGeometry x="360" y="430" width="700" height="140" as="geometry" />
        </mxCell>
        <mxCell id="E3F-e6bLjiYr8utAB-yd-3" value="" style="edgeStyle=orthogonalEdgeStyle;rounded=0;orthogonalLoop=1;jettySize=auto;html=1;" edge="1" parent="1" source="E3F-e6bLjiYr8utAB-yd-1" target="E3F-e6bLjiYr8utAB-yd-2">
          <mxGeometry relative="1" as="geometry" />
        </mxCell>
        <mxCell id="E3F-e6bLjiYr8utAB-yd-4" value="hive2mysql" style="edgeLabel;html=1;align=center;verticalAlign=middle;resizable=0;points=[];" vertex="1" connectable="0" parent="E3F-e6bLjiYr8utAB-yd-3">
          <mxGeometry x="0.125" y="-3" relative="1" as="geometry">
            <mxPoint x="-10" y="-3" as="offset" />
          </mxGeometry>
        </mxCell>
        <mxCell id="E3F-e6bLjiYr8utAB-yd-1" value="跃升词hive表" style="rounded=0;whiteSpace=wrap;html=1;" vertex="1" parent="1">
          <mxGeometry x="120" y="470" width="120" height="60" as="geometry" />
        </mxCell>
        <mxCell id="E3F-e6bLjiYr8utAB-yd-2" value="跃升词记录表" style="rounded=0;whiteSpace=wrap;html=1;" vertex="1" parent="1">
          <mxGeometry x="400" y="470" width="120" height="60" as="geometry" />
        </mxCell>
        <mxCell id="E3F-e6bLjiYr8utAB-yd-6" style="edgeStyle=orthogonalEdgeStyle;rounded=0;orthogonalLoop=1;jettySize=auto;html=1;" edge="1" parent="1" source="E3F-e6bLjiYr8utAB-yd-5" target="E3F-e6bLjiYr8utAB-yd-2">
          <mxGeometry relative="1" as="geometry" />
        </mxCell>
        <mxCell id="E3F-e6bLjiYr8utAB-yd-12" value="" style="edgeStyle=orthogonalEdgeStyle;rounded=0;orthogonalLoop=1;jettySize=auto;html=1;exitX=1;exitY=0.5;exitDx=0;exitDy=0;entryX=0;entryY=0.5;entryDx=0;entryDy=0;" edge="1" parent="1" source="E3F-e6bLjiYr8utAB-yd-5" target="E3F-e6bLjiYr8utAB-yd-10">
          <mxGeometry relative="1" as="geometry" />
        </mxCell>
        <mxCell id="E3F-e6bLjiYr8utAB-yd-5" value="查询跃升词" style="rounded=0;whiteSpace=wrap;html=1;" vertex="1" parent="1">
          <mxGeometry x="400" y="280" width="120" height="60" as="geometry" />
        </mxCell>
        <mxCell id="E3F-e6bLjiYr8utAB-yd-7" value="跃升词巡检记录表" style="rounded=0;whiteSpace=wrap;html=1;" vertex="1" parent="1">
          <mxGeometry x="650" y="470" width="120" height="60" as="geometry" />
        </mxCell>
        <mxCell id="E3F-e6bLjiYr8utAB-yd-11" style="edgeStyle=orthogonalEdgeStyle;rounded=0;orthogonalLoop=1;jettySize=auto;html=1;" edge="1" parent="1" source="E3F-e6bLjiYr8utAB-yd-10" target="E3F-e6bLjiYr8utAB-yd-7">
          <mxGeometry relative="1" as="geometry" />
        </mxCell>
        <mxCell id="E3F-e6bLjiYr8utAB-yd-19" value="提工单" style="edgeStyle=orthogonalEdgeStyle;rounded=0;orthogonalLoop=1;jettySize=auto;html=1;" edge="1" parent="1" source="E3F-e6bLjiYr8utAB-yd-10" target="E3F-e6bLjiYr8utAB-yd-18">
          <mxGeometry relative="1" as="geometry" />
        </mxCell>
        <mxCell id="E3F-e6bLjiYr8utAB-yd-10" value="巡检" style="rounded=0;whiteSpace=wrap;html=1;" vertex="1" parent="1">
          <mxGeometry x="650" y="280" width="120" height="60" as="geometry" />
        </mxCell>
        <mxCell id="E3F-e6bLjiYr8utAB-yd-20" style="edgeStyle=orthogonalEdgeStyle;rounded=0;orthogonalLoop=1;jettySize=auto;html=1;exitX=0.5;exitY=1;exitDx=0;exitDy=0;" edge="1" parent="1" source="E3F-e6bLjiYr8utAB-yd-18" target="E3F-e6bLjiYr8utAB-yd-21">
          <mxGeometry relative="1" as="geometry">
            <mxPoint x="960" y="440" as="targetPoint" />
          </mxGeometry>
        </mxCell>
        <mxCell id="E3F-e6bLjiYr8utAB-yd-18" value="创建工单" style="rounded=0;whiteSpace=wrap;html=1;" vertex="1" parent="1">
          <mxGeometry x="900" y="280" width="120" height="60" as="geometry" />
        </mxCell>
        <mxCell id="E3F-e6bLjiYr8utAB-yd-21" value="跃升词巡检记录表" style="rounded=0;whiteSpace=wrap;html=1;" vertex="1" parent="1">
          <mxGeometry x="900" y="470" width="120" height="60" as="geometry" />
        </mxCell>
        <mxCell id="E3F-e6bLjiYr8utAB-yd-25" style="edgeStyle=orthogonalEdgeStyle;rounded=0;orthogonalLoop=1;jettySize=auto;html=1;exitX=0;exitY=0.3333333333333333;exitDx=0;exitDy=0;exitPerimeter=0;" edge="1" parent="1" source="E3F-e6bLjiYr8utAB-yd-22" target="E3F-e6bLjiYr8utAB-yd-5">
          <mxGeometry relative="1" as="geometry" />
        </mxCell>
        <mxCell id="E3F-e6bLjiYr8utAB-yd-26" style="edgeStyle=orthogonalEdgeStyle;rounded=0;orthogonalLoop=1;jettySize=auto;html=1;entryX=0.5;entryY=0;entryDx=0;entryDy=0;" edge="1" parent="1" source="E3F-e6bLjiYr8utAB-yd-22" target="E3F-e6bLjiYr8utAB-yd-10">
          <mxGeometry relative="1" as="geometry" />
        </mxCell>
        <mxCell id="E3F-e6bLjiYr8utAB-yd-27" style="edgeStyle=orthogonalEdgeStyle;rounded=0;orthogonalLoop=1;jettySize=auto;html=1;exitX=1;exitY=0.3333333333333333;exitDx=0;exitDy=0;exitPerimeter=0;" edge="1" parent="1" source="E3F-e6bLjiYr8utAB-yd-22" target="E3F-e6bLjiYr8utAB-yd-18">
          <mxGeometry relative="1" as="geometry" />
        </mxCell>
        <mxCell id="E3F-e6bLjiYr8utAB-yd-22" value="运营" style="shape=umlActor;verticalLabelPosition=bottom;verticalAlign=top;html=1;outlineConnect=0;" vertex="1" parent="1">
          <mxGeometry x="695" y="90" width="30" height="60" as="geometry" />
        </mxCell>
      </root>
    </mxGraphModel>
  </diagram>
</mxfile>
